<?xml version="1.0" encoding="UTF-8"?>
<svg id="Calque_1" xmlns="http://www.w3.org/2000/svg" version="1.1" viewBox="0 0 543.3 261.2">
  <!-- Generator: Adobe Illustrator 29.7.0, SVG Export Plug-In . SVG Version: 2.1.1 Build 138)  -->
  <defs>
    <style>
      .st0 {
        fill: #fff;
      }

      .st1 {
        fill: #5cc16b;
      }

      .st2 {
        fill: #ff1654;
      }
    </style>
  </defs>
  <polygon class="st1" points="391.2 0 369.9 17.9 386.3 37.4 422.5 37.4 391.2 0"/>
  <g>
    <path class="st0" d="M114,142h13.9l-5-63.3h-3.5l-5.3,63.3h-.1ZM130.4,170.6h-18.9l-2.3,29h-37.3l16.9-154.9h65l16.1,154.9h-37.3l-2.3-29h0Z"/>
    <path class="st0" d="M228.2,132.5v-53.8h-14.6v53.8h14.6ZM176.5,44.6h67.1c18.6,0,21.7,11.9,21.7,31.3v61.1c0,14.6-6.1,29.2-25.5,29.2h-26.2v33.4h-37.1V44.6Z"/>
    <path class="st0" d="M326.5,123.1v-44.4h-15.4v44.4h15.4ZM274.1,199.6V44.6h67.1c15.9,0,21.7,8.8,21.7,31.3v47.2c0,16.6-3.3,26-11.6,29.5l13.6,47h-37.1l-12.1-42.7h-4.5v42.7h-37.1Z"/>
    <path class="st0" d="M372.9,44.6h74.6v34h-37.5v26.8h27v33.8h-27v26.5h37.5v33.8h-74.6V44.6Z"/>
    <path class="st0" d="M543.1,165.8c0,20.9-9.6,33.8-28.7,33.8h-28.7c-18.2,0-29.7-11.9-29.7-34.3v-18.5h36.6v19h14.4v-17.2l-33.5-22.2c-13.1-8.6-17.4-13.9-17.4-31v-19.7c0-22.9,11.9-31,30.5-31h25.2c22.7,0,31.5,10.8,31.5,35.8v15.2h-36.3v-17h-14.4v14.7l33.3,20.9c13.4,8.1,17.4,13.9,17.4,31v20.5h-.2Z"/>
    <polygon class="st0" points="37.1 165.8 37.1 44.6 0 44.6 0 199.6 65.3 199.6 65.3 165.8 37.1 165.8"/>
  </g>
  <g>
    <path class="st0" d="M15.2,253.4c-3,0-5.5-.6-7.5-1.7-2.1-1.1-3.6-2.8-4.7-4.8s-1.6-4.5-1.6-7.2.6-5.5,1.7-7.6,2.7-3.8,4.7-4.9c2-1.1,4.4-1.7,7.1-1.7s6,.7,8,2.1c2.1,1.4,3.6,3.3,4.5,5.8.9,2.4,1.2,5.2.9,8.3H10.7c0,1,.1,1.9.5,2.6s.9,1.2,1.6,1.6,1.5.5,2.4.5,2-.2,2.6-.5c.6-.4,1.1-.8,1.3-1.4h8.9c-.2,1.8-.9,3.4-2.1,4.7-1.1,1.3-2.6,2.4-4.5,3.1-1.8.8-3.9,1.2-6.3,1.2h.1ZM10.6,236.8l-.8-.8h9.9l-.8.7c0-.9,0-1.7-.4-2.3s-.8-1.1-1.4-1.5-1.4-.5-2.2-.5-1.7.2-2.3.6c-.6.4-1.1.9-1.5,1.5-.3.6-.5,1.4-.5,2.3h0Z"/>
    <path class="st0" d="M32.5,252.9v-27h9.1l.4,4.4h.4c.7-1.6,1.7-2.9,3.1-3.7s3-1.2,4.8-1.2,2.6.2,3.7.6c1.1.4,2.1,1,3,1.9s1.5,2,2,3.4.7,3.1.7,5.1v16.5h-9.5v-14.5c0-1.2-.1-2.2-.4-3s-.7-1.4-1.2-1.8-1.3-.6-2.3-.6-1.8.2-2.5.7c-.6.5-1.1,1-1.5,1.7-.3.7-.5,1.4-.5,2.1v15.3h-9.5.2Z"/>
    <path class="st0" d="M75.8,253.4c-1.9,0-3.6-.2-5.1-.6s-2.8-1-3.9-1.8-1.9-1.8-2.5-2.9-.9-2.3-.9-3.6h9.3c0,.6.2,1,.5,1.4s.7.6,1.1.8c.5.2,1,.2,1.6.2.9,0,1.6-.2,2-.5s.6-.7.6-1.3-.1-.9-.4-1.1-.7-.4-1.3-.6c-.6-.1-1.4-.3-2.4-.4-2.4-.4-4.4-.9-6-1.5s-2.7-1.5-3.5-2.7c-.7-1.1-1.1-2.6-1.1-4.4s.5-3.4,1.5-4.8,2.4-2.4,4.2-3.2c1.8-.8,3.9-1.1,6.4-1.1s4.2.4,5.9,1.1c1.7.7,3,1.7,4,3s1.5,2.8,1.6,4.4h-9.3c0-.4-.1-.8-.3-1.1-.2-.3-.5-.5-.9-.6s-.8-.2-1.4-.2-1.3.1-1.7.4-.6.7-.6,1.3.2.8.5,1.1.8.5,1.6.6c.7.2,1.7.3,3,.5,2.4.3,4.2.8,5.7,1.4,1.5.6,2.5,1.6,3.1,2.7s1,2.6,1,4.3-.5,3.6-1.6,5c-1,1.4-2.5,2.4-4.4,3.1s-4.1,1.1-6.6,1.1h.3Z"/>
    <path class="st0" d="M105.3,253.4c-3,0-5.5-.6-7.5-1.7-2.1-1.1-3.6-2.8-4.7-4.8s-1.6-4.5-1.6-7.2.6-5.5,1.7-7.6,2.7-3.8,4.7-4.9c2-1.1,4.4-1.7,7.1-1.7s6,.7,8,2.1c2.1,1.4,3.6,3.3,4.5,5.8.9,2.4,1.2,5.2.9,8.3h-17.6c0,1,.1,1.9.5,2.6s.9,1.2,1.6,1.6,1.5.5,2.4.5,2-.2,2.6-.5c.6-.4,1.1-.8,1.3-1.4h8.9c-.2,1.8-.9,3.4-2.1,4.7-1.1,1.3-2.6,2.4-4.5,3.1-1.8.8-3.9,1.2-6.3,1.2h.1ZM100.7,236.8l-.8-.8h9.9l-.8.7c0-.9,0-1.7-.4-2.3s-.8-1.1-1.4-1.5-1.4-.5-2.2-.5-1.7.2-2.3.6c-.6.4-1.1.9-1.5,1.5-.3.6-.5,1.4-.5,2.3h0Z"/>
    <path class="st0" d="M122.6,252.9v-27h9.2l.3,4.4h.4c.6-1.6,1.6-2.9,3-3.7s2.9-1.2,4.6-1.2,3.4.4,4.9,1.2,2.7,2.3,3.4,4.5h.4c.6-1.9,1.6-3.4,3.1-4.3,1.5-.9,3.3-1.4,5.2-1.4s3.2.4,4.6,1.1c1.4.7,2.4,1.9,3.2,3.5s1.2,3.8,1.2,6.4v16.5h-9.5v-14.5c0-1.2-.1-2.2-.4-3s-.6-1.4-1.1-1.8c-.5-.4-1.2-.6-2.1-.6s-1.6.2-2.2.7-1,1-1.3,1.7-.5,1.4-.5,2.1v15.3h-9.5v-14.5c0-1.2-.1-2.2-.4-3s-.6-1.4-1.1-1.8c-.5-.4-1.2-.6-2.1-.6s-1.6.2-2.2.7-1,1-1.3,1.7-.5,1.4-.5,2.1v15.3h-9.5l.2.2Z"/>
    <path class="st0" d="M189,253.4c-1.2,0-2.3-.2-3.4-.5-1-.4-1.9-.9-2.7-1.6-.7-.7-1.3-1.5-1.6-2.3h-.5l-.4,3.9h-9v-36.2h9.5v13.1h.4c.5-1.3,1.4-2.4,2.8-3.2s3-1.2,4.8-1.2,3.1.3,4.5.9c1.3.6,2.5,1.5,3.4,2.7s1.7,2.7,2.2,4.4.8,3.7.8,5.9-.5,5.5-1.3,7.6c-.9,2.1-2.2,3.7-3.8,4.8-1.6,1.1-3.6,1.7-5.7,1.7h0ZM185.2,245.8c1.2,0,2.1-.3,2.9-.8s1.3-1.3,1.6-2.3.5-2.1.5-3.4,0-1.8-.2-2.6c-.2-.8-.4-1.4-.8-2s-.9-1-1.5-1.3-1.4-.5-2.2-.5-1.9.2-2.6.6-1.2,1-1.5,1.8-.5,1.7-.5,2.8v2.3c0,1.1.2,2.1.5,2.9.4.8.8,1.4,1.5,1.8.6.4,1.4.6,2.2.6h.1Z"/>
    <path class="st0" d="M204.2,252.9v-36.2h9.5v36.2h-9.5Z"/>
    <path class="st0" d="M231.7,253.4c-3,0-5.5-.6-7.5-1.7-2.1-1.1-3.7-2.8-4.7-4.8-1.1-2.1-1.6-4.5-1.6-7.2s.6-5.5,1.7-7.6c1.1-2.1,2.7-3.8,4.7-4.9,2-1.1,4.4-1.7,7.1-1.7s6,.7,8,2.1c2.1,1.4,3.6,3.3,4.5,5.8.9,2.4,1.2,5.2.9,8.3h-17.6c0,1,0,1.9.5,2.6s.9,1.2,1.6,1.6c.7.4,1.5.5,2.4.5s2-.2,2.6-.5c.6-.4,1.1-.8,1.3-1.4h8.9c-.2,1.8-.9,3.4-2.1,4.7s-2.6,2.4-4.5,3.1c-1.8.8-3.9,1.2-6.3,1.2h0ZM227.1,236.8l-.8-.8h9.9l-.8.7c0-.9,0-1.7-.4-2.3s-.8-1.1-1.4-1.5c-.6-.4-1.4-.5-2.2-.5s-1.7.2-2.3.6c-.7.4-1.1.9-1.5,1.5-.3.6-.5,1.4-.5,2.3Z"/>
    <path class="st0" d="M259.5,261.2v-35.3h9l.3,3.9h.5c.5-1.3,1.4-2.4,2.8-3.2s3-1.2,4.8-1.2,3.1.3,4.5.9c1.3.6,2.5,1.5,3.4,2.7s1.7,2.7,2.2,4.4.8,3.7.8,5.9-.5,5.5-1.3,7.6-2.2,3.7-3.8,4.8-3.5,1.6-5.7,1.6-2.3-.2-3.3-.5c-1-.4-1.9-.9-2.7-1.6-.7-.7-1.3-1.5-1.6-2.3h-.4v12.2h-9.5ZM273.2,245.8c1.2,0,2.2-.3,2.9-.8s1.3-1.3,1.6-2.3.5-2.1.5-3.4-.2-2.4-.5-3.4-.8-1.7-1.5-2.2-1.6-.8-2.8-.8-1.9.2-2.6.6-1.2,1-1.5,1.8-.5,1.7-.5,2.8v2.3c0,1.1.2,2.1.5,2.9s.8,1.4,1.5,1.8c.6.4,1.4.6,2.3.6h0Z"/>
    <path class="st0" d="M305.4,253.4c-2.1,0-4-.3-5.7-.9s-3.2-1.5-4.4-2.7-2.2-2.7-2.8-4.4c-.7-1.7-1-3.7-1-5.9s.5-5.3,1.6-7.4c1.1-2.1,2.7-3.7,4.7-4.9,2.1-1.2,4.6-1.8,7.5-1.8s4,.3,5.7.9,3.1,1.5,4.4,2.7c1.2,1.2,2.2,2.7,2.8,4.4.7,1.7,1,3.7,1,6s-.5,5.2-1.6,7.3c-1.1,2.1-2.6,3.7-4.7,4.9-2.1,1.2-4.6,1.8-7.5,1.8h0ZM305.4,245.8c.9,0,1.6-.2,2.3-.6s1.1-1.1,1.5-2.1.5-2.2.5-3.7,0-2.1-.3-2.9-.5-1.5-.9-2-.8-.9-1.3-1.1-1.1-.4-1.8-.4-1.6.2-2.3.6-1.1,1.1-1.5,2-.5,2.2-.5,3.7,0,2.1.3,3,.5,1.5.9,2,.8.9,1.4,1.1c.5.2,1.1.4,1.7.4h0Z"/>
    <path class="st0" d="M332.9,253.4c-2.1,0-3.9-.4-5.3-1.2s-2.5-2-3.2-3.6-1-3.5-1-5.7v-17h9.5v14.5c0,1.2,0,2.2.4,3,.3.8.7,1.4,1.3,1.8s1.3.6,2.3.6,1.8-.2,2.5-.7,1.1-1,1.5-1.7c.3-.7.5-1.4.5-2.1v-15.3h9.5v27h-9.1l-.3-4.4h-.4c-.6,1.6-1.7,2.9-3.1,3.7-1.4.8-3,1.2-4.8,1.2h-.3Z"/>
    <path class="st0" d="M356.3,252.9v-27h8.6l.3,3.9h.3c.6-1.7,1.5-2.9,2.8-3.4,1.2-.6,2.7-.8,4.2-.8h1.5v8.9h-1.7c-1.7,0-3.1.2-4,.7s-1.6,1.1-2,1.9-.6,1.9-.6,3.1v12.8h-9.5.1Z"/>
    <path class="st0" d="M388.2,252.9v-36.2h9.5v36.2h-9.5Z"/>
    <path class="st0" d="M400.8,232.9c1.4-1.5,2.6-3,3.7-4.6,1.1-1.6,1.8-3,2.1-4.2l.7.6h-1.3c-1.3,0-2.4-.4-3.1-1.1s-1.1-1.7-1.1-2.9.4-2.4,1.3-3.2,2-1.2,3.4-1.2,2.5.5,3.5,1.4,1.4,2.2,1.4,3.9-.2,2-.5,3.1-.7,2.1-1.3,3.2-1.1,2-1.8,2.9-1.3,1.6-2,2.2h-5.1,0Z"/>
    <path class="st0" d="M423.5,253.4c-2.1,0-3.9-.4-5.3-1.2s-2.5-2-3.2-3.6-1-3.5-1-5.7v-17h9.5v14.5c0,1.2,0,2.2.4,3,.3.8.7,1.4,1.3,1.8s1.3.6,2.3.6,1.8-.2,2.5-.7,1.1-1,1.5-1.7c.3-.7.5-1.4.5-2.1v-15.3h9.5v27h-9.1l-.3-4.4h-.4c-.6,1.6-1.7,2.9-3.1,3.7-1.4.8-3,1.2-4.8,1.2h-.3Z"/>
    <path class="st0" d="M446.8,252.9v-27h9.1l.3,4.4h.4c.7-1.6,1.7-2.9,3.2-3.7s3-1.2,4.8-1.2,2.6.2,3.7.6c1.1.4,2.1,1,3,1.9s1.5,2,2,3.4.7,3.1.7,5.1v16.5h-9.5v-14.5c0-1.2,0-2.2-.4-3s-.7-1.4-1.2-1.8-1.3-.6-2.3-.6-1.8.2-2.5.7-1.1,1-1.5,1.7c-.3.7-.5,1.4-.5,2.1v15.3h-9.5.2Z"/>
    <path class="st0" d="M484.1,223.7c-1.4,0-2.5-.4-3.5-1.1-.9-.7-1.4-1.7-1.4-3.1s.5-2.3,1.4-3.1c.9-.7,2.1-1.1,3.5-1.1s2.5.4,3.5,1.1c.9.7,1.4,1.7,1.4,3.1s-.5,2.3-1.4,3.1c-.9.7-2.1,1.1-3.5,1.1ZM479.3,252.9v-27h9.5v27h-9.5Z"/>
    <path class="st0" d="M504.6,252.9c-2.6,0-4.5-.6-5.7-1.8s-1.8-3.1-1.8-5.7v-11.9h-4.5v-7.6h4.5v-6.9l9.5-.8v7.7h4.9v7.6h-4.9v10.1c0,.7.2,1.2.5,1.4.4.2.8.4,1.4.4h3v7.6h-6.9Z"/>
    <path class="st0" d="M528.6,253.4c-3,0-5.5-.6-7.5-1.7-2.1-1.1-3.7-2.8-4.7-4.8-1.1-2.1-1.6-4.5-1.6-7.2s.6-5.5,1.7-7.6c1.1-2.1,2.7-3.8,4.7-4.9,2-1.1,4.4-1.7,7.1-1.7s6,.7,8,2.1c2.1,1.4,3.6,3.3,4.5,5.8.9,2.4,1.2,5.2.9,8.3h-17.6c0,1,0,1.9.5,2.6s.9,1.2,1.6,1.6c.7.4,1.5.5,2.4.5s2-.2,2.6-.5c.6-.4,1.1-.8,1.3-1.4h8.9c-.2,1.8-.9,3.4-2.1,4.7s-2.6,2.4-4.5,3.1c-1.8.8-3.9,1.2-6.3,1.2h0ZM524.1,236.8l-.8-.8h9.9l-.8.7c0-.9,0-1.7-.4-2.3s-.8-1.1-1.4-1.5c-.6-.4-1.4-.5-2.2-.5s-1.7.2-2.3.6c-.7.4-1.1.9-1.5,1.5-.3.6-.5,1.4-.5,2.3ZM524.7,223.1l2.6-7.4h9.3l-4.8,7.4h-7.1Z"/>
  </g>
  <polygon class="st2" points="48.8 44.6 76.6 44.7 76.5 70.2 48.6 93.3 48.8 44.6"/>
</svg>