<?xml version="1.0" encoding="UTF-8"?> <svg xmlns="http://www.w3.org/2000/svg" id="Calque_1" width="3005.7" height="1970" version="1.1" viewBox="0 0 3005.7 1970"><defs><style> .st0 { fill: #e02d2d; } .st1 { fill: #0047af; } </style></defs><g><path class="st1" d="M1556.1,723.2h44c113.5,0,176-63.1,176-177.7s-65.7-155.9-206.6-155.9h-13.5v-89.1h72.7c68.9,0,138.8,21.9,191.8,60,44.1,31.7,96.6,89.5,96.6,184.9s-21.3,208.4-217.5,258.5l263.5,389.5-121.8,42-285.3-420.5v-91.8Z"></path><rect class="st0" x="1407.5" y="165.9" width="148.9" height="1170"></rect><rect class="st1" x="1141.7" y="299.9" width="148.8" height="914.3"></rect></g><g><path class="st1" d="M314.1,1043.1h21v283.1h138.7v18.1h-159.8v-301.2Z"></path><path class="st1" d="M502.2,1235c0-71.6,46.5-115.6,95.7-115.6s84,37,84,101.5-.2,11-1.1,16.5h-157.8c.7,55.4,33.2,95,82.6,95s42.5-7.9,59-19.5l8.3,15.4c-17.3,10.8-37,21.6-69.2,21.6-56,0-101.5-43-101.5-114.8ZM662.8,1220.7c0-56-25.4-83.9-64.8-83.9s-70.7,31.4-75.2,83.9h140Z"></path><path class="st1" d="M714,1319.4l11.7-14.7c18.6,15.5,38.5,27.8,69.7,27.8s52.5-20.2,52.5-43.3-28.4-39.6-53.7-48.7c-33.1-11.7-69.9-25.2-69.9-62.7s25-58.4,70.7-58.4,46.7,9.7,62.7,22.8l-10.9,14.5c-14.8-11.1-30.4-20-52.4-20-34.2,0-49.7,19.7-49.7,39.9,0,25,25.9,34.5,52,44.4,34,12.9,71.7,24.1,71.7,66.9s-26.4,61.9-73.9,61.9-60.8-13.6-80.4-30.3Z"></path></g><g><path class="st1" d="M520,1524.5c0-66.7-47.9-88.7-110-88.7h-100.7v298.9h53v-116.8h45.5l64.3,116.8h59.6l-71.5-124.5c35.9-12.5,59.8-40.3,59.8-85.7ZM362.2,1478.2h42.2c40.9,0,63.2,11.9,63.2,46.2s-22.3,51-63.2,51h-42.2v-97.2Z"></path><path class="st1" d="M659.2,1504.8c-52.8,0-103.5,45-103.5,117.9s48.6,117.5,110.6,117.5,55.6-9.9,77-24.3l-17.9-32.7c-16.5,10.2-32.9,16.3-52.1,16.3-36.2,0-61.8-22.7-66.2-62.5h142.5c1.2-5.5,2.3-15.5,2.3-25.6,0-62.7-32-106.6-92.7-106.6ZM606.6,1601.1c4.6-36,27.6-55.6,53.7-55.6s46.1,21,46.1,55.6h-99.8Z"></path><path class="st1" d="M918.5,1504.8c-24.7,0-48.7,13.2-67.6,29.4h-1.5l-4-23.9h-43.1v313.3h52.6v-70.7l-1.6-37.3c18.3,15.7,37.8,24.7,57.8,24.7,49.9,0,95.8-44.4,95.8-121.2s-32.2-114.2-88.3-114.2ZM899.9,1696.7c-13,0-28.9-4.9-45-18.6v-104.6c17.4-17,32.7-25.2,49-25.2,34.2,0,48.8,26.5,48.8,71.3s-22.8,77.1-52.8,77.1Z"></path><path class="st1" d="M1194.7,1664c-17,21.9-30,31.1-49.7,31.1s-34.9-13.9-34.9-50.8v-134h-52.6v140.8c0,56.7,21,89.2,69.1,89.2s52.5-15.2,72.2-38.6h1.5l4,33.1h43.1v-224.5h-52.6v153.7Z"></path><path class="st1" d="M1430.1,1504.8c-23,0-46.1,11.5-64.8,28l1.5-37.3v-83.5h-52.6v322.8h41.5l4.6-23.6h1.5c18.8,18.6,40.8,29.1,61.2,29.1,49.9,0,95.8-44.4,95.8-121.5s-32.4-114-88.6-114ZM1411.7,1696.7c-13,0-29.2-4.9-45-18.6v-104.6c17-17,32.7-25.2,49-25.2,34.2,0,48.8,26.5,48.8,71.3s-22.8,77.1-52.8,77.1Z"></path><path class="st1" d="M1632.6,1697.2c-5.5,0-11.3-4.6-11.3-17.5v-267.8h-52.6v265.1c0,39.1,13.7,63.2,51,63.2s21.4-2,27.8-4.6l-6.6-39.3c-4,.9-5.8.9-8.2.9Z"></path><path class="st1" d="M1719,1411.3c-18.6,0-32.5,12.1-32.5,29.8s13.9,29.8,32.5,29.8,32.5-12.4,32.5-29.8-13.9-29.8-32.5-29.8Z"></path><rect class="st1" x="1692.5" y="1510.2" width="52.6" height="224.5"></rect><path class="st1" d="M1911.1,1697.2c-34.9,0-59.6-29.6-59.6-74.6s25-74.9,61.2-74.9,25.4,6,37.3,16.5l25.6-34.2c-16.3-14.3-37.1-25.2-65.6-25.2-59.8,0-112.6,43.1-112.6,117.9s47,117.5,108.2,117.5,52.3-9,73.3-27.6l-21.4-34.7c-12.8,10.8-28.9,19.4-46.4,19.4Z"></path><path class="st1" d="M2107.6,1504.8c-35.6,0-67.5,13.9-92.1,29.4l19.4,35.1c19.7-12.1,40.8-22.1,63.1-22.1s40,20.1,40.8,44.2c-92.1,9.9-132,34.9-132,83s27.1,65.8,66.4,65.8,49.5-13.2,69.6-30.3h1.5l4,24.9h43.1v-132.9c0-62.5-27.6-97.1-83.7-97.1ZM2138.7,1674.6c-16.6,15.4-30.5,24.3-48.8,24.3s-32.4-8.7-32.4-28.5,20.3-38.6,81.2-46.2v50.5Z"></path><path class="st1" d="M2281.1,1411.3c-18.6,0-32.5,12.1-32.5,29.8s13.9,29.8,32.5,29.8,32.5-12.4,32.5-29.8-13.9-29.8-32.5-29.8Z"></path><rect class="st1" x="2254.5" y="1510.2" width="52.6" height="224.5"></rect><path class="st1" d="M2496.6,1504.8c-30.7,0-53.6,16.3-73.7,35.8h-1.5l-4-30.3h-43.1v224.5h52.6v-156.8c18.5-18.3,31.4-28,51.2-28s34.9,13.9,34.9,50.8v134h52.6v-140.8c0-56.7-21-89.2-69.1-89.2Z"></path><path class="st1" d="M2715.7,1602.7c-24.3-9-47-15.7-47-33.5s10.7-24.9,33.3-24.9,33.5,8,49.2,19.6l24.1-32.4c-18.3-14.2-43.3-26.9-74.6-26.9-50.3,0-81.7,28.2-81.7,67.1s33.6,54.4,63.1,65.4c23.9,9.1,48.3,17.5,48.3,36.4s-11.5,26.9-36,26.9-42-9.5-62-25l-24.5,33.5c21.9,18.1,54.3,31.3,85,31.3,56.7,0,87.2-31.1,87.2-69.6s-34-56.5-64.3-67.8Z"></path><polygon class="st1" points="721.8 1443.8 596.7 1464.7 594.7 1490.4 719.5 1472.1 721.8 1443.8"></polygon></g></svg> 