<?xml version="1.0" encoding="UTF-8"?> <svg xmlns="http://www.w3.org/2000/svg" width="149" height="128" viewBox="0 0 149 128" fill="none"><g clip-path="url(#clip0_179_533)"><path d="M21.5099 56.6318H27.9988L39.6351 74.3472V56.6318H45.4524V82.9259H38.9634L27.2898 65.1732V82.9259H21.5083V56.6318H21.5099Z" fill="#1D257A"></path><path d="M48.7048 82.9259V56.6318H67.1199V61.7417H54.5533V67.1866H65.8748V72.3338H54.5533V77.8161H67.1199V82.9259H48.7048Z" fill="#1D257A"></path><path d="M70.2491 56.6318H78.9385C82.5679 56.6318 85.2716 57.3908 87.0497 58.907C88.8278 60.4233 89.7161 62.4507 89.7161 64.9862C89.7161 68.4177 88.2372 70.8175 85.2779 72.1842L90.7228 82.9259H84.7932L80.4298 73.3405C80.1057 73.3654 79.6086 73.3779 78.9385 73.3779H76.0291V82.9259H70.2476V56.6318H70.2491ZM76.0306 61.7417V68.2681H78.9401C80.8288 68.2681 82.2282 68.025 83.1351 67.5403C84.0421 67.0557 84.4971 66.2048 84.4971 64.9862C84.4971 63.7675 84.0437 62.9229 83.1351 62.4507C82.2266 61.9785 80.8288 61.7417 78.9401 61.7417H76.0306Z" fill="#1D257A"></path><path d="M106.262 56.1471C108.475 56.1471 110.514 56.6005 112.379 57.5091C114.244 58.4176 115.786 59.6923 117.004 61.3333L112.454 64.9144C110.962 62.9493 108.898 61.9675 106.262 61.9675C104.05 61.9675 102.215 62.7015 100.761 64.1695C99.3075 65.6374 98.5798 67.5152 98.5798 69.8029C98.5798 72.0906 99.3075 73.9699 100.761 75.4364C102.215 76.9043 104.05 77.6383 106.262 77.6383C108.948 77.6383 111.011 76.9168 112.454 75.4738V72.6376H107.978V68.4581H117.489V78.2336C116.27 79.8262 114.654 81.0885 112.641 82.0204C110.627 82.9523 108.5 83.4198 106.262 83.4198C102.434 83.4198 99.2374 82.1388 96.677 79.5769C94.1151 77.015 92.8357 73.7565 92.8357 69.8014C92.8357 65.8463 94.1167 62.5503 96.677 59.9884C99.2374 57.4265 102.432 56.1455 106.262 56.1455V56.1471Z" fill="#1D257A"></path><path d="M120.822 56.627H126.727V83.0161H120.822V56.627Z" fill="#1D257A"></path><path d="M129.904 83.0161V56.627H148.104V61.7555H135.684V67.2206H146.873V72.3866H135.684V77.8891H148.104V83.0177H129.904V83.0161Z" fill="#1D257A"></path><path d="M27.3975 87.3936H29.9687C31.0424 87.3936 31.8434 87.6211 32.3702 88.0761C32.8953 88.5312 33.1587 89.1389 33.1587 89.8978C33.1587 90.6567 32.8953 91.2676 32.3702 91.7258C31.8434 92.1839 31.044 92.413 29.9687 92.413H29.1085V95.2757H27.3975V87.3936ZM29.1085 88.9254V90.8811H29.9687C30.5282 90.8811 30.9412 90.8079 31.2108 90.663C31.4788 90.518 31.6144 90.2625 31.6144 89.8978C31.6144 89.5332 31.4803 89.2792 31.2108 89.1374C30.9427 88.9955 30.5282 88.9254 29.9687 88.9254H29.1085Z" fill="#1D257A"></path><path d="M34.8853 88.3803C35.6598 87.6105 36.6245 87.2256 37.7823 87.2256C38.9402 87.2256 39.9032 87.6105 40.6731 88.3803C41.4429 89.1502 41.8278 90.135 41.8278 91.335C41.8278 92.5349 41.4429 93.5213 40.6731 94.2896C39.9032 95.0594 38.9386 95.4443 37.7823 95.4443C36.626 95.4443 35.6598 95.0594 34.8853 94.2896C34.1108 93.5198 33.7244 92.5349 33.7244 91.335C33.7244 90.135 34.1108 89.1486 34.8853 88.3803ZM39.4513 89.6364C39.0072 89.1938 38.4524 88.9725 37.7823 88.9725C37.1122 88.9725 36.5575 89.1938 36.1133 89.6364C35.6692 90.0789 35.4479 90.6462 35.4479 91.3365C35.4479 92.0269 35.6692 92.5941 36.1133 93.0367C36.5575 93.4793 37.1122 93.7006 37.7823 93.7006C38.4524 93.7006 39.0072 93.4793 39.4513 93.0367C39.8954 92.5941 40.1167 92.0269 40.1167 91.3365C40.1167 90.6462 39.8954 90.0789 39.4513 89.6364Z" fill="#1D257A"></path><path d="M42.4808 87.3936H44.2184V91.3518C44.2184 92.0624 44.368 92.6312 44.6672 93.0613C44.9664 93.4914 45.3887 93.7064 45.9341 93.7064C46.4795 93.7064 46.9065 93.4914 47.212 93.0613C47.519 92.6312 47.6717 92.0624 47.6717 91.3518V87.3936H49.4092V91.3518C49.4092 92.6374 49.0835 93.641 48.4337 94.3625C47.7839 95.084 46.9502 95.444 45.9326 95.444C44.915 95.444 44.0859 95.0856 43.4439 94.3672C42.8003 93.6503 42.4792 92.6452 42.4792 91.3518V87.3936H42.4808Z" fill="#1D257A"></path><path d="M50.4297 87.3657H53.0493C54.1432 87.3657 54.9583 87.5948 55.4943 88.053C56.0304 88.5111 56.2984 89.122 56.2984 89.8887C56.2984 90.925 55.8528 91.6496 54.9614 92.061L56.6023 95.304H54.8149L53.4996 92.4101C53.4015 92.4179 53.2519 92.421 53.0508 92.421H52.1735V95.304H50.4312V87.3673L50.4297 87.3657ZM52.1719 88.9085V90.8782H53.0493C53.6181 90.8782 54.0404 90.805 54.3131 90.6585C54.5858 90.512 54.723 90.2549 54.723 89.8871C54.723 89.5194 54.5858 89.2638 54.3131 89.122C54.0388 88.9802 53.6181 88.9085 53.0493 88.9085H52.1719Z" fill="#1D257A"></path><path d="M60.7633 87.3936H62.479V93.7658H65.524V95.3023H60.7617V87.3921L60.7633 87.3936Z" fill="#1D257A"></path><path d="M68.7983 87.3936H70.7805L73.7429 95.3038H71.8932L71.3758 93.8794H68.2045L67.6872 95.3038H65.8374L68.7998 87.3936H68.7983ZM69.7894 89.502L68.7655 92.3398H70.8132L69.7894 89.502Z" fill="#1D257A"></path><path d="M77.9924 95.3038V87.3936H83.3594V88.9301H79.6973V90.8936H82.9963V92.4302H79.6973V95.3022H77.9924V95.3038Z" fill="#1D257A"></path><path d="M84.4175 87.3936H86.9997C88.0781 87.3936 88.8822 87.6212 89.4104 88.0778C89.9387 88.5344 90.2021 89.1437 90.2021 89.9073C90.2021 90.9389 89.7626 91.662 88.8837 92.0718L90.5013 95.3023H88.7388L87.4422 92.4193C87.3456 92.4271 87.1991 92.4302 86.9997 92.4302H86.1348V95.3023H84.4175V87.3921V87.3936ZM86.1348 88.9302V90.8937H86.9997C87.5607 90.8937 87.9768 90.8205 88.2464 90.6755C88.5159 90.5291 88.6515 90.2735 88.6515 89.9073C88.6515 89.5411 88.5159 89.287 88.2464 89.1437C87.9768 89.0019 87.5607 88.9302 86.9997 88.9302H86.1348Z" fill="#1D257A"></path><path d="M93.883 87.3936H95.8777L98.8604 95.3038H96.9981L96.4776 93.8794H93.2846L92.7641 95.3038H90.9019L93.8845 87.3936H93.883ZM94.8803 89.502L93.8487 92.3398H95.9104L94.8788 89.502H94.8803Z" fill="#1D257A"></path><path d="M99.5492 87.3936H101.497L104.989 92.7231V87.3936H106.736V95.3038H104.788L101.284 89.9633V95.3038H99.5476V87.3936H99.5492Z" fill="#1D257A"></path><path d="M111.32 87.3937C111.985 87.3937 112.601 87.5278 113.166 87.7958C113.73 88.0638 114.193 88.4378 114.552 88.9147L113.182 89.9728C112.733 89.3916 112.111 89.1017 111.32 89.1017C110.654 89.1017 110.099 89.3183 109.658 89.7515C109.217 90.1848 108.996 90.7395 108.996 91.4159C108.996 92.0922 109.217 92.647 109.658 93.0802C110.099 93.5134 110.653 93.73 111.32 93.73C112.097 93.73 112.719 93.4324 113.182 92.8371L114.552 93.9061C114.192 94.3907 113.73 94.7679 113.166 95.0359C112.601 95.3039 111.987 95.438 111.32 95.438C110.168 95.438 109.206 95.0608 108.435 94.3082C107.664 93.5555 107.279 92.5908 107.279 91.4143C107.279 90.2377 107.664 89.2731 108.435 88.5204C109.205 87.7677 110.168 87.3906 111.32 87.3906V87.3937Z" fill="#1D257A"></path><path d="M115.317 95.4428V87.3955H120.684V88.9601H117.021V90.626H120.321V92.2015H117.021V93.8798H120.684V95.4444H115.317V95.4428Z" fill="#1D257A"></path><path d="M18.2 61.7417V56.6319H16.1274V53.5557L3.82108 55.1234V56.6319H0V82.9259H5.78149H18.2V77.8161H5.78149V72.3338H16.9689V67.1866H5.78149V61.7417H18.2Z" fill="#1D257A"></path><path d="M131.847 40.1197H130.076C130.076 34.9148 127.278 30.059 122.775 27.4472L82.0597 3.84124C77.2989 1.0814 71.3834 1.0814 66.6226 3.84124L25.906 27.4487C21.4023 30.059 18.6051 34.9148 18.6051 40.1213H16.8333C16.8333 37.2477 17.5906 34.4146 19.0259 31.9243C20.4595 29.4356 22.5321 27.3568 25.0177 25.9169L65.7344 2.30782C71.0437 -0.769925 77.6386 -0.769925 82.9479 2.30782L123.665 25.9153C126.15 27.3568 128.221 29.4341 129.656 31.9228C131.09 34.4115 131.849 37.2461 131.849 40.1197H131.847Z" fill="#98955F"></path><path d="M74.3411 128C71.3647 128 68.3898 127.23 65.7344 125.692L25.0177 102.084C22.5321 100.643 20.4611 98.5655 19.0259 96.0768C17.5922 93.5881 16.8333 90.7535 16.8333 87.8799H18.6051C18.6051 93.0848 21.4023 97.9406 25.906 100.552L66.6226 124.16C71.3834 126.92 77.2989 126.92 82.0597 124.16L122.776 100.552C127.28 97.9422 130.077 93.0863 130.077 87.8799H131.849C131.849 90.7535 131.092 93.5866 129.656 96.0768C128.223 98.5655 126.15 100.644 123.665 102.084L82.9479 125.692C80.2941 127.231 77.3176 128 74.3411 128Z" fill="#98955F"></path><path d="M21.4835 42.1504H23.5296L27.198 49.149V42.1504H29.0322V52.5368H26.986L23.3052 45.5242V52.5368H21.4819V42.1504H21.4835Z" fill="#98955F"></path><path d="M48.9868 42.4355H51.0672V47.5033C51.0672 48.4134 51.2464 49.1427 51.6048 49.6928C51.9633 50.2429 52.4682 50.5187 53.1211 50.5187C53.7741 50.5187 54.2837 50.2445 54.6514 49.6928C55.0176 49.1427 55.2015 48.4134 55.2015 47.5033V42.4355H57.2819V47.5033C57.2819 49.1489 56.8923 50.4346 56.1147 51.3587C55.3355 52.2828 54.3382 52.7441 53.1211 52.7441C51.9041 52.7441 50.9098 52.2843 50.1416 51.3665C49.3717 50.447 48.9868 49.1598 48.9868 47.5049V42.4371V42.4355Z" fill="#98955F"></path><path d="M62.8827 42.4355H64.8649L67.1183 49.9795L69.3716 42.4355H71.3539L68.1795 52.7441H66.0555L62.8811 42.4355H62.8827Z" fill="#98955F"></path><path d="M96.8939 51.139H95.3043H93.4904V42.4355H91.4692V52.7441H91.4739H93.4904H95.3043H96.8939H98.7623V51.139H96.8939Z" fill="#98955F"></path><path d="M77.5608 52.7441V42.4387L80.0947 42.4355L85.3354 42.4418V43.9565H79.4277V46.6836H84.2477V48.3511H79.4277V51.2309H85.337L85.3354 52.7441" fill="#98955F"></path><path d="M119.399 52.7441V42.4387L121.933 42.4355L127.174 42.4418V43.9565H121.266V46.6836H126.086V48.3511H121.266V51.2309H127.176L127.174 52.7441" fill="#98955F"></path><path d="M110.913 51.139H109.323H107.509V42.4355H105.488V52.7441H105.493H107.509H109.323H110.913H112.781V51.139H110.913Z" fill="#98955F"></path><path d="M34.823 47.4752C34.823 45.7797 35.2313 44.477 36.0494 43.5669C36.8676 42.6568 37.8852 42.2002 39.1038 42.2002C39.8908 42.2002 40.6092 42.4043 41.259 42.8111C41.9073 43.2178 42.4215 43.8084 42.8002 44.5845C43.1789 45.3605 43.369 46.2831 43.369 47.3537C43.369 48.8279 43.0028 50.0278 42.2688 50.9535C41.4616 51.9757 40.4035 52.4853 39.096 52.4853C37.7885 52.4853 36.718 51.9617 35.9154 50.9129C35.1877 49.9639 34.823 48.8185 34.823 47.4752ZM36.6213 47.4347C36.6213 48.5349 36.8566 49.3873 37.3288 49.9951C37.801 50.6013 38.3745 50.9052 39.0492 50.9052C39.724 50.9052 40.3193 50.5982 40.7868 49.9857C41.2543 49.3733 41.4881 48.4726 41.4881 47.2835C41.4881 46.5168 41.3681 45.8312 41.1265 45.2265C40.9411 44.7637 40.6621 44.3944 40.2881 44.1154C39.9157 43.838 39.5074 43.6978 39.0648 43.6978C38.3542 43.6978 37.7683 44.0017 37.3086 44.611C36.8489 45.2203 36.6182 46.1615 36.6182 47.4363L36.6213 47.4347Z" fill="#98955F"></path></g><defs><clipPath id="clip0_179_533"><rect width="148.106" height="128" fill="white"></rect></clipPath></defs></svg> 