<svg width="456" height="96" viewBox="0 0 456 96" fill="none" xmlns="http://www.w3.org/2000/svg">
<path d="M20.0052 74.5279C16.3963 80.7796 18.3855 88.452 18.4707 88.793C18.6128 89.3898 19.0107 89.8729 19.5506 90.1855C19.8916 90.3844 20.2894 90.498 20.6872 90.498C20.8862 90.498 21.0851 90.498 21.284 90.4128C21.5966 90.3275 29.269 88.1963 32.8779 81.9731C36.4868 75.7214 34.4977 68.049 34.4124 67.708C34.2703 67.1112 33.8725 66.6281 33.3326 66.3156C32.8211 66.003 32.1675 65.9177 31.5992 66.0882C31.2866 66.1735 23.6141 68.3047 20.0052 74.5279ZM26.9105 54.7216C26.6831 54.4943 20.9998 48.9246 13.8104 48.9246C6.62105 48.9246 0.909329 54.4659 0.681997 54.7216C0.255749 55.1479 0 55.7446 0 56.3414C0 56.9381 0.255749 57.5349 0.681997 57.9611C0.909329 58.1884 6.59264 63.7581 13.782 63.7581C20.9714 63.7581 26.6547 58.1884 26.882 57.9611C27.3083 57.5349 27.564 56.9381 27.564 56.3414C27.564 55.7446 27.3367 55.1479 26.882 54.7216M34.384 44.9747C34.4693 44.6622 36.4584 36.9613 32.8495 30.7096C29.2406 24.458 21.5966 22.3552 21.2556 22.2699C20.6588 22.0994 20.0337 22.1847 19.5222 22.4973C19.0107 22.8098 18.6128 23.2929 18.4423 23.8897C18.3571 24.2023 16.3679 31.9031 19.9768 38.1548C23.5857 44.4064 31.2298 46.5092 31.5708 46.5945C31.7697 46.6513 31.9686 46.6797 32.1675 46.6797C32.5653 46.6797 32.9632 46.5661 33.3042 46.3672C33.8157 46.0546 34.2135 45.5715 34.384 44.9747ZM58.1402 74.5279C54.5313 68.2763 46.8873 66.1735 46.5463 66.0882C45.9495 65.9177 45.3244 66.003 44.8129 66.3156C44.273 66.6281 43.9035 67.1112 43.733 67.708C43.6478 68.0206 41.6586 75.7214 45.2675 81.9731C48.8764 88.2247 56.5205 90.3275 56.8615 90.4128C57.0604 90.4696 57.2593 90.498 57.4582 90.498C57.8561 90.498 58.2539 90.3844 58.5949 90.1855C59.1064 89.8729 59.5042 89.3898 59.6747 88.793C59.76 88.4805 61.7491 80.7796 58.1402 74.5279Z" fill="#FFCC00"/>
<path d="M5.00088 74.1298C4.83038 74.7266 4.91563 75.3517 5.22822 75.8632C5.5408 76.3747 6.02388 76.7725 6.62063 76.943C6.79112 76.9999 9.03603 77.5682 12.0198 77.5682C14.6909 77.5682 17.9304 77.1135 20.8857 75.4086C27.1374 71.7997 29.2402 64.1556 29.3254 63.8146C29.4675 63.2179 29.4107 62.5927 29.0981 62.0812C28.7855 61.5697 28.3024 61.1719 27.7057 61.0014C27.3931 60.9161 19.6922 58.927 13.4406 62.5359C7.18896 66.1448 5.08613 73.7888 5.00088 74.1298ZM29.0981 50.5725C29.4107 50.0326 29.4959 49.4074 29.3254 48.8391C29.2402 48.5265 27.1089 40.854 20.8857 37.2451C14.6341 33.6362 6.96162 35.6254 6.62063 35.7106C6.02388 35.8811 5.5408 36.2506 5.22822 36.7905C4.91563 37.302 4.83038 37.9556 5.00088 38.5239C5.08613 38.8365 7.21737 46.5089 13.4406 50.1178C16.3675 51.8228 19.6354 52.2775 22.2781 52.2775C25.2619 52.2775 27.5068 51.6807 27.6773 51.6523C28.274 51.5102 28.7571 51.1124 29.0697 50.5725M40.6636 44.1504C40.891 43.923 46.4606 38.2397 46.4606 31.0503C46.4606 23.8609 40.891 18.1776 40.6636 17.9503C40.2374 17.5241 39.6406 17.2683 39.0439 17.2683C38.4471 17.2683 37.8504 17.5241 37.4241 17.9503C37.1968 18.1776 31.6272 23.8609 31.6272 31.0503C31.6272 38.2397 37.1968 43.923 37.4241 44.1504C37.8504 44.5766 38.4471 44.8324 39.0439 44.8324C39.6406 44.8324 40.2374 44.605 40.6636 44.1504ZM40.6636 94.7318C40.891 94.5045 46.4606 88.8212 46.4606 81.6034C46.4606 74.3856 40.891 68.7307 40.6636 68.5033C40.2374 68.0771 39.6406 67.8213 39.0439 67.8213C38.4471 67.8213 37.8504 68.0771 37.4241 68.5033C37.1968 68.7307 31.6272 74.414 31.6272 81.6034C31.6272 88.7927 37.1968 94.476 37.4241 94.7318C37.8504 95.158 38.4471 95.4138 39.0439 95.4138C39.6406 95.4138 40.2374 95.1865 40.6636 94.7318ZM73.1153 74.1298C73.0301 73.8172 70.8988 66.1448 64.6756 62.5359C58.424 58.927 50.7515 60.9161 50.4105 61.0014C49.8138 61.1434 49.3307 61.5413 49.0181 62.0812C48.7055 62.6211 48.6203 63.2463 48.7908 63.8146C48.876 64.1272 51.0073 71.7997 57.2305 75.4086C60.1574 77.1135 63.4253 77.5682 66.068 77.5682C69.0518 77.5682 71.2967 76.9999 71.4672 76.943C72.0639 76.7725 72.547 76.4031 72.8596 75.8632C73.1721 75.3233 73.2574 74.7266 73.0869 74.1298" fill="#FFED00"/>
<path d="M92.3257 44.6342V40.0591H102.414C102.726 38.5531 102.897 37.1891 102.897 35.9956C102.897 34.8021 102.726 33.4665 102.414 31.932H92.3257V27.2717H105.596C105.824 26.3055 105.994 25.4246 106.051 24.629C106.136 23.8049 106.165 23.0376 106.165 22.2704C106.165 21.5031 106.136 20.7075 106.051 19.8834C105.966 19.0593 105.824 18.15 105.596 17.2122H80.2202V54.7789H105.596C105.824 53.8127 105.994 52.9318 106.051 52.0793C106.136 51.2553 106.165 50.4312 106.165 49.6923C106.165 48.9535 106.136 48.1294 106.051 47.3338C105.966 46.5097 105.824 45.6288 105.596 44.691H92.3257V44.6342ZM123.584 40.3717C123.129 39.2066 122.902 37.729 122.902 35.9672C122.902 32.614 123.669 30.2839 125.147 28.9199C126.653 27.5559 128.557 26.8739 130.83 26.8739C131.455 26.8739 132.024 26.8739 132.592 26.9023C133.132 26.9023 133.7 26.9875 134.268 27.0728C134.837 27.158 135.434 27.3001 136.087 27.4706C136.741 27.6411 137.451 27.8684 138.275 28.1526C139.099 26.6181 139.668 25.0552 140.065 23.4639C140.435 21.8726 140.577 20.2528 140.492 18.6331C139.355 18.2068 138.304 17.8374 137.366 17.5532C136.428 17.2691 135.519 17.0417 134.638 16.8997C133.757 16.7576 132.876 16.6723 131.967 16.6155C131.057 16.5587 130.12 16.5302 129.097 16.5302C126.141 16.5302 123.527 17.0133 121.225 17.9511C118.924 18.9172 116.991 20.2244 115.428 21.9294C113.865 23.6344 112.672 25.652 111.848 28.0389C111.024 30.4259 110.626 33.0403 110.626 35.9103C110.626 38.7804 111.024 41.5368 111.848 43.8954C112.643 46.2539 113.865 48.2715 115.457 49.9765C117.048 51.6815 119.037 52.9602 121.367 53.8696C123.698 54.7789 126.397 55.2336 129.466 55.2336C131.285 55.2336 133.075 55.1199 134.894 54.8642C136.712 54.6368 138.701 54.0685 140.89 53.216C140.89 51.17 140.662 49.3513 140.179 47.7316C139.696 46.1403 139.071 44.691 138.247 43.4123C136.854 43.9238 135.661 44.3216 134.638 44.549C133.615 44.7763 132.421 44.9184 131.029 44.9184C129.921 44.9184 128.898 44.7763 127.903 44.4921C126.909 44.208 126.056 43.7249 125.317 43.0713C124.578 42.4177 123.982 41.48 123.527 40.3149M169.562 36.0524C169.562 39.0646 169.05 41.3663 168.027 42.986C167.004 44.6058 165.441 45.4299 163.339 45.4299C161.236 45.4299 159.673 44.6058 158.678 42.986C157.684 41.3663 157.172 39.0361 157.172 36.0524C157.172 33.0687 157.684 30.6533 158.678 29.0335C159.673 27.4138 161.236 26.5897 163.339 26.5897C165.441 26.5897 167.004 27.3854 168.027 29.0335C169.05 30.6533 169.562 32.9834 169.562 36.0524ZM180.616 43.8954C181.411 41.5368 181.781 38.9225 181.781 36.0524C181.781 33.1823 181.383 30.4828 180.616 28.0674C179.82 25.652 178.655 23.606 177.121 21.8726C175.586 20.1391 173.654 18.832 171.352 17.8942C169.05 16.9565 166.379 16.5018 163.339 16.5018C160.298 16.5018 157.684 16.9565 155.41 17.8942C153.109 18.832 151.205 20.1391 149.642 21.8726C148.107 23.5775 146.914 25.652 146.147 28.0674C145.351 30.4828 144.953 33.1255 144.953 36.0524C144.953 38.9793 145.351 41.5368 146.147 43.8954C146.942 46.2539 148.107 48.2715 149.642 49.9765C151.205 51.6815 153.109 52.9602 155.41 53.8696C157.684 54.7789 160.355 55.2336 163.339 55.2336C166.322 55.2336 169.05 54.7789 171.352 53.8696C173.654 52.9602 175.558 51.6531 177.121 49.9765C178.655 48.2715 179.849 46.2539 180.616 43.8954ZM214.09 52.1362C214.176 51.3121 214.204 50.488 214.204 49.7492C214.204 49.0104 214.176 48.2147 214.09 47.3906C214.034 46.5665 213.863 45.6856 213.636 44.7479H200.11L200.195 17.6385C199.2 17.4112 198.177 17.2407 197.126 17.127C196.074 17.0133 195.108 16.9849 194.199 16.9849C193.233 16.9849 192.267 17.0417 191.215 17.127C190.192 17.2122 189.141 17.3827 188.089 17.6385L188.033 54.8357H213.664C213.892 53.898 214.062 52.9887 214.119 52.1646M243.132 36.1092C243.132 39.1214 242.621 41.4231 241.598 43.0429C240.575 44.6626 239.012 45.4867 236.909 45.4867C234.806 45.4867 233.272 44.6626 232.249 43.0429C231.254 41.4231 230.743 39.093 230.743 36.1092C230.743 33.1255 231.254 30.7101 232.249 29.0904C233.243 27.4706 234.806 26.6465 236.909 26.6465C239.012 26.6465 240.575 27.4422 241.598 29.0904C242.621 30.7101 243.132 33.0403 243.132 36.1092ZM254.186 43.9522C254.982 41.5936 255.38 38.9793 255.38 36.1092C255.38 33.2392 254.982 30.5396 254.186 28.1242C253.391 25.7088 252.225 23.6628 250.691 21.9294C249.128 20.196 247.224 18.8888 244.922 17.9511C242.621 17.0133 239.95 16.5587 236.909 16.5587C233.868 16.5587 231.254 17.0133 228.981 17.9511C226.679 18.8888 224.775 20.196 223.212 21.9294C221.649 23.6344 220.484 25.7088 219.717 28.1242C218.921 30.5396 218.552 33.1823 218.552 36.1092C218.552 39.0361 218.95 41.5936 219.717 43.9522C220.513 46.3108 221.678 48.3284 223.212 50.0333C224.775 51.7383 226.679 53.0171 228.981 53.9264C231.283 54.8357 233.925 55.2904 236.909 55.2904C239.893 55.2904 242.649 54.8357 244.922 53.9264C247.196 53.0171 249.128 51.7099 250.691 50.0333C252.225 48.3284 253.419 46.3108 254.186 43.9522ZM288.201 54.3527C290.673 53.7275 292.605 53.1592 293.998 52.6477V34.4611C291.696 34.0348 289.735 33.8075 288.059 33.8075C287.206 33.8075 286.297 33.8643 285.388 33.9496C284.45 34.0348 283.398 34.2053 282.205 34.4611V44.9752H280.926C278.255 44.9752 276.237 44.2364 274.845 42.7303C273.453 41.2242 272.771 38.8941 272.771 35.683C272.771 34.5463 272.913 33.4381 273.225 32.3583C273.538 31.2784 274.021 30.3407 274.703 29.545C275.385 28.7494 276.237 28.0958 277.346 27.6127C278.454 27.1296 279.79 26.9023 281.352 26.9023C282.347 26.9023 283.54 27.0444 284.933 27.3569C286.325 27.6695 287.831 28.1526 289.451 28.8346C289.877 27.7832 290.247 26.8455 290.559 26.0214C290.872 25.1973 291.128 24.4016 291.355 23.6628C291.554 22.924 291.753 22.1851 291.895 21.4747C292.037 20.7643 292.122 19.9971 292.179 19.173C289.792 18.2068 287.604 17.5532 285.587 17.1838C283.569 16.786 281.75 16.6155 280.074 16.6155C276.891 16.6155 274.049 17.127 271.634 18.1216C269.19 19.1162 267.173 20.4801 265.524 22.1851C263.876 23.9185 262.626 25.9361 261.802 28.2663C260.978 30.5964 260.552 33.0971 260.552 35.7114C260.552 38.3257 260.893 40.9685 261.575 43.3555C262.257 45.7425 263.365 47.8169 264.899 49.5787C266.434 51.3405 268.395 52.7329 270.81 53.7559C273.225 54.7789 276.152 55.2904 279.562 55.2904C282.972 55.2904 285.729 54.9778 288.229 54.3527M301.585 54.8642H313.605V17.2407C312.611 17.0133 311.588 16.8428 310.536 16.7292C309.485 16.6439 308.519 16.5871 307.609 16.5871C306.672 16.5871 305.677 16.6439 304.654 16.7292C303.631 16.8144 302.608 16.9849 301.557 17.2407V54.8926L301.585 54.8642ZM349.126 47.5327C349.865 45.9698 350.234 44.2932 350.234 42.4745C350.234 40.6559 350.007 39.2351 349.524 37.9847C349.041 36.7344 348.387 35.7114 347.563 34.8589C346.739 34.0064 345.744 33.296 344.579 32.7561C343.414 32.2162 342.135 31.7331 340.715 31.3637L336.083 30.1418C335.429 29.9429 334.832 29.7155 334.292 29.4314C333.781 29.1472 333.497 28.7494 333.497 28.2094C333.497 26.9875 335.287 26.2203 337.503 26.2203C339.01 26.2203 345.858 27.0728 347.137 27.6127C347.137 27.6127 347.563 25.4246 347.648 22.8103C347.733 19.7981 347.137 17.6101 347.137 17.6101C345.062 16.8997 327.444 13.8023 322.585 23.0092C321.818 24.5153 321.448 27.158 321.448 29.0051C321.448 31.932 322.272 34.2622 323.949 35.9672C325.625 37.6722 327.7 38.8941 330.2 39.6045L335.031 40.9685C335.827 41.1958 336.537 41.48 337.163 41.7925C337.788 42.1051 338.1 42.5598 338.1 43.185C338.1 43.668 337.958 44.0375 337.646 44.3216C337.333 44.6058 336.935 44.8331 336.481 45.0036C335.997 45.1741 335.458 45.2878 334.832 45.3162C334.207 45.373 333.61 45.4015 333.042 45.4015C331.394 45.4015 323.551 45.1457 322.045 44.4353C321.221 48.4704 321.477 51.9373 322.016 54.4663C325.625 55.2904 330.911 55.2904 333.184 55.2904C335.941 55.2904 338.356 54.9494 340.487 54.2958C342.59 53.6422 344.38 52.7329 345.83 51.5963C347.279 50.4596 348.359 49.0956 349.097 47.5327M388.284 24.4869C388.369 23.6628 388.398 22.8671 388.398 22.0999C388.398 21.3326 388.369 20.5654 388.284 19.7413C388.227 18.9457 388.057 18.0647 387.829 17.0986H354.752C354.525 18.0363 354.355 18.9172 354.298 19.7413C354.241 20.5654 354.184 21.3326 354.184 22.0999C354.184 22.8671 354.212 23.6628 354.298 24.4869C354.383 25.311 354.525 26.2203 354.752 27.158H365.295V54.8642H377.315V27.1864H387.858C388.085 26.2487 388.255 25.3394 388.312 24.5153M407.437 45.0036V40.0023H417.326C417.638 38.5246 417.78 37.1891 417.78 35.9956C417.78 34.8021 417.638 33.4949 417.326 32.0173H407.437V27.0444H420.423C420.65 26.1066 420.821 25.2541 420.878 24.4585C420.963 23.6628 420.991 22.8956 420.991 22.1567C420.991 21.4179 420.963 20.6222 420.878 19.7981C420.821 18.9741 420.65 18.0932 420.423 17.1838H395.587V54.921H420.423C420.65 53.9832 420.821 53.1023 420.878 52.2783C420.963 51.4542 420.991 50.6869 420.991 49.9197C420.991 49.1524 420.963 48.4136 420.878 47.6179C420.821 46.8223 420.65 45.9698 420.423 45.032H407.437V45.0036ZM439.235 28.2663C439.235 27.0444 441.025 26.2771 443.241 26.2771C444.748 26.2771 451.596 27.1296 452.875 27.6695C452.875 27.6695 453.301 25.4815 453.386 22.8671C453.471 19.855 452.875 17.6669 452.875 17.6669C450.8 16.9565 433.182 13.8591 428.323 23.0661C427.556 24.5721 427.186 27.2149 427.186 29.0619C427.186 31.9888 428.01 34.319 429.687 36.024C431.335 37.729 433.438 38.9509 435.938 39.6613L440.769 41.0253C441.565 41.2526 442.275 41.5368 442.9 41.8494C443.526 42.162 443.838 42.6166 443.838 43.2418C443.838 43.7249 443.696 44.0943 443.384 44.3785C443.071 44.6626 442.673 44.89 442.218 45.0604C441.735 45.2309 441.195 45.3446 440.57 45.373C439.945 45.4299 439.348 45.4583 438.78 45.4583C437.132 45.4583 429.289 45.2025 427.783 44.4921C426.959 48.5273 427.215 51.9941 427.754 54.5232C431.363 55.3472 436.649 55.3472 438.922 55.3472C441.679 55.3472 444.094 55.0062 446.225 54.3527C448.328 53.6991 450.118 52.7898 451.567 51.6531C453.017 50.5164 454.097 49.1524 454.835 47.5895C455.574 46.0266 455.944 44.35 455.944 42.5314C455.944 40.7127 455.716 39.2919 455.233 38.0416C454.75 36.7912 454.097 35.7682 453.272 34.9157C452.448 34.0633 451.454 33.3528 450.289 32.8129C449.124 32.273 447.845 31.7899 446.424 31.4205L441.792 30.1986C441.139 29.9997 440.542 29.7724 440.002 29.4882C439.49 29.204 439.206 28.8062 439.206 28.2663" fill="#166A5D"/>
<path d="M55.3268 51.5106C55.2983 51.88 55.2699 52.221 55.2699 52.5052C55.2699 52.7894 55.2699 53.1019 55.3268 53.4714C55.3552 53.8408 55.412 54.2386 55.4688 54.6933H73.2008V44.6054C72.7745 44.5202 72.4051 44.4633 72.0925 44.4349C71.7799 44.4349 71.4958 44.4065 71.2116 44.4065C70.9559 44.4065 70.7001 44.4065 70.3875 44.4349C70.0749 44.4349 69.7339 44.5202 69.3077 44.6054V50.3171H55.4404C55.3836 50.7434 55.3268 51.1412 55.2983 51.5106M69.3361 32.2442V38.439H65.8125V33.665C65.1021 33.523 64.4485 33.4377 63.8801 33.4377C63.3118 33.4377 62.6866 33.523 61.9478 33.665V38.439H59.2198V32.3863C58.4526 32.2442 57.799 32.1874 57.2591 32.1874C56.9749 32.1874 56.6908 32.1874 56.3782 32.2442C56.0656 32.2726 55.7246 32.3295 55.3552 32.3863V42.8152H73.1439V32.2158C72.4619 32.0737 71.8084 31.9885 71.1832 31.9885C70.6149 31.9885 69.9897 32.0737 69.3077 32.2158M73.0871 30.3403C73.3997 28.6069 73.3997 26.2199 73.3997 25.1685C73.3997 23.8329 73.2292 22.6678 72.9166 21.6448C72.604 20.6503 72.1778 19.7978 71.6379 19.1158C71.1264 18.4622 70.5012 17.9507 69.7908 17.6097C69.0804 17.2687 68.2847 17.0982 67.4606 17.0982C66.6365 17.0982 65.9545 17.2119 65.3862 17.4108C64.8463 17.6097 64.3632 17.9223 63.9938 18.2633C63.596 18.6327 63.2834 19.0874 63.0561 19.5989C62.8003 20.1672 62.573 20.7923 62.4025 21.4743L61.7773 23.8329C61.6636 24.2023 61.5216 24.5433 61.3795 24.8559C61.1237 25.3106 60.7543 25.5379 60.2712 25.5379C59.3335 25.5379 58.7083 24.4865 58.7083 22.952C58.7083 22.3553 58.9925 19.8546 59.2767 18.519C58.8504 18.4622 58.2252 18.3769 57.5148 18.3769C56.5487 18.3769 55.753 18.4622 55.3552 18.5474C54.9573 20.3093 53.9059 27.8965 57.8843 29.9993C58.5378 30.3403 59.7882 30.5108 60.6407 30.5108C62.0046 30.5108 63.0276 30.1414 63.7665 29.4026C64.5621 28.6353 65.1305 27.6691 65.4431 26.4757L66.125 24.0318C66.2671 23.5772 66.4092 23.2078 66.5797 22.8668C66.8355 22.3553 67.2617 22.0995 67.7732 22.0995C68.171 22.0995 68.512 22.2416 68.7678 22.5258C68.9667 22.7247 69.1088 23.0088 69.2225 23.3214C69.3361 23.6056 69.3929 23.9182 69.4214 24.2876C69.4214 24.6002 69.4498 24.9412 69.4498 25.2253C69.4498 25.2537 69.3929 28.6921 69.1088 30.3403C70.7001 30.5961 72.0641 30.4824 73.0303 30.3403M88.9719 63.815H80.3333C80.1344 63.815 80.0207 63.9286 80.0207 64.1276V77.1992C80.0207 77.3981 80.1344 77.5118 80.3333 77.5118H88.9719C89.1709 77.5118 89.2845 77.3981 89.2845 77.1992V75.8636C89.2845 75.6647 89.1709 75.551 88.9719 75.551H82.4077C82.4077 75.551 82.2941 75.4942 82.2941 75.4373V71.6864C82.2941 71.6864 82.3509 71.5727 82.4077 71.5727H86.7839C86.9828 71.5727 87.0964 71.459 87.0964 71.2601V69.9245C87.0964 69.7256 86.9828 69.612 86.7839 69.612H82.4077C82.4077 69.612 82.2941 69.5551 82.2941 69.4983V65.8894C82.2941 65.8894 82.3225 65.7757 82.4077 65.7757H88.9719C89.1709 65.7757 89.2845 65.6621 89.2845 65.4631V64.1276C89.2845 63.9286 89.1709 63.815 88.9719 63.815ZM99.6566 1.66801C99.6566 1.27018 99.5429 0.872351 99.2587 0.55977C98.9746 0.247188 98.5767 0.0482718 98.1789 0.0198553C97.9516 0.0198553 92.4672 -0.406393 88.773 2.69101C85.0789 5.78841 84.7095 11.0171 84.7095 11.2444C84.7095 11.6422 84.8231 12.0401 85.1073 12.3526C85.3062 12.5515 85.5335 12.722 85.7893 12.8073C85.903 12.8641 86.045 12.8925 86.1871 12.8925C86.4145 12.8925 91.8988 13.3188 95.593 10.2214C99.2871 7.12399 99.6566 1.89535 99.6566 1.66801ZM106.249 73.0788V64.1276C106.249 63.9286 106.136 63.815 105.937 63.815H104.288C104.09 63.815 103.976 63.9286 103.976 64.1276V73.1072C103.976 74.6417 102.924 75.7215 101.333 75.7215C99.7418 75.7215 98.6904 74.6701 98.6904 73.1072V64.1276C98.6904 63.9286 98.5767 63.815 98.3778 63.815H96.7297C96.5307 63.815 96.4171 63.9286 96.4171 64.1276V73.0788C96.4171 75.8636 98.4062 77.6823 101.333 77.6823C104.26 77.6823 106.249 75.8636 106.249 73.0788ZM119.093 69.8393H116.167C116.167 69.8393 116.053 69.8109 116.053 69.7256V65.861C116.053 65.861 116.081 65.7473 116.167 65.7473H119.093C120.344 65.7473 121.196 66.5998 121.196 67.8217C121.196 69.0436 120.344 69.8393 119.093 69.8393ZM123.271 77.5118C123.498 77.5118 123.612 77.3413 123.498 77.1423L120.798 71.5443C120.798 71.5443 120.798 71.4022 120.855 71.4022C122.447 70.9191 123.47 69.612 123.47 67.7933C123.47 65.4063 121.85 63.7866 119.434 63.7866H114.121C113.922 63.7866 113.808 63.9002 113.808 64.0991V77.1992C113.808 77.3981 113.922 77.5118 114.121 77.5118H115.769C115.968 77.5118 116.081 77.3981 116.081 77.1992V71.7148C116.081 71.7148 116.138 71.6011 116.195 71.6011H118.497C118.497 71.6011 118.61 71.6011 118.639 71.6864L121.196 77.2844C121.282 77.4549 121.395 77.5118 121.566 77.5118H123.271ZM137.962 72.9651C137.962 74.6417 136.882 75.7499 135.234 75.7499C133.586 75.7499 132.534 74.6417 132.534 72.9651V68.39C132.534 66.7135 133.614 65.6052 135.234 65.6052C136.854 65.6052 137.962 66.7135 137.962 68.39V72.9651ZM140.235 72.8799V68.4185C140.235 65.5484 138.246 63.6445 135.234 63.6445C132.222 63.6445 130.261 65.5484 130.261 68.4185V72.8799C130.261 75.7783 132.25 77.6823 135.234 77.6823C138.218 77.6823 140.235 75.7783 140.235 72.8799ZM154.927 67.9354C154.927 69.2141 154.046 70.0666 152.71 70.0666H149.812C149.812 70.0666 149.698 70.0098 149.698 69.953V65.861C149.698 65.861 149.755 65.7473 149.812 65.7473H152.71C154.046 65.7473 154.927 66.6282 154.927 67.9354ZM157.2 67.8785C157.2 65.4347 155.523 63.7866 153.051 63.7866H147.737C147.538 63.7866 147.425 63.9002 147.425 64.0991V77.1992C147.425 77.3981 147.538 77.5118 147.737 77.5118H149.386C149.584 77.5118 149.698 77.3981 149.698 77.1992V72.0274C149.698 72.0274 149.755 71.9137 149.812 71.9137H152.938C155.495 71.9137 157.2 70.294 157.2 67.8785ZM173.284 77.1992V75.8636C173.284 75.6647 173.17 75.551 172.971 75.551H166.407C166.407 75.551 166.293 75.4942 166.293 75.4373V71.6864C166.293 71.6864 166.35 71.5727 166.407 71.5727H170.783C170.982 71.5727 171.096 71.459 171.096 71.2601V69.9245C171.096 69.7256 170.982 69.612 170.783 69.612H166.407C166.407 69.612 166.293 69.5551 166.293 69.4983V65.8894C166.293 65.8894 166.322 65.7757 166.407 65.7757H172.971C173.17 65.7757 173.284 65.6621 173.284 65.4631V64.1276C173.284 63.9286 173.17 63.815 172.971 63.815H164.333C164.134 63.815 164.02 63.9286 164.02 64.1276V77.1992C164.02 77.3981 164.134 77.5118 164.333 77.5118H172.971C173.17 77.5118 173.284 77.3981 173.284 77.1992ZM195.761 60.2629C195.903 60.0356 195.818 59.8935 195.562 59.8935H194.028C193.857 59.8935 193.744 59.9787 193.658 60.1208L192.635 61.9679C192.522 62.1952 192.635 62.3373 192.863 62.3373H194.142C194.284 62.3373 194.426 62.3089 194.511 62.1384L195.761 60.2629ZM198.376 77.1992V75.8636C198.376 75.6647 198.262 75.551 198.063 75.551H191.499C191.499 75.551 191.385 75.4942 191.385 75.4373V71.6864C191.385 71.6864 191.442 71.5727 191.499 71.5727H195.875C196.074 71.5727 196.188 71.459 196.188 71.2601V69.9245C196.188 69.7256 196.074 69.612 195.875 69.612H191.499C191.499 69.612 191.385 69.5551 191.385 69.4983V65.8894C191.385 65.8894 191.414 65.7757 191.499 65.7757H198.063C198.262 65.7757 198.376 65.6621 198.376 65.4631V64.1276C198.376 63.9286 198.262 63.815 198.063 63.815H189.424C189.226 63.815 189.112 63.9286 189.112 64.1276V77.1992C189.112 77.3981 189.226 77.5118 189.424 77.5118H198.063C198.262 77.5118 198.376 77.3981 198.376 77.1992ZM214.971 73.2209V73.1356C214.971 73.1356 214.857 73.0504 214.658 73.0504L213.01 72.9651C212.811 72.9651 212.698 73.0504 212.698 73.1924C212.698 74.7269 211.675 75.7499 210.083 75.7499C208.492 75.7499 207.44 74.7269 207.44 73.1924V68.1911C207.44 66.6566 208.492 65.6336 210.083 65.6336C211.675 65.6336 212.698 66.6566 212.698 68.1911V68.3048C212.698 68.3048 212.811 68.4185 213.01 68.39L214.687 68.3048C214.886 68.3048 214.971 68.2195 214.971 68.0775C214.971 65.4347 213.01 63.6729 210.083 63.6729C207.156 63.6729 205.167 65.4916 205.167 68.248V73.0788C205.167 75.8352 207.128 77.6823 210.083 77.6823C213.039 77.6823 214.971 75.9204 214.971 73.2493M229.549 72.9935C229.549 74.6701 228.469 75.7783 226.821 75.7783C225.172 75.7783 224.121 74.6701 224.121 72.9935V68.4185C224.121 66.7419 225.201 65.6336 226.821 65.6336C228.44 65.6336 229.549 66.7419 229.549 68.4185V72.9935ZM231.822 72.9083V68.4469C231.822 65.5768 229.833 63.6729 226.821 63.6729C223.808 63.6729 221.848 65.5768 221.848 68.4469V72.9083C221.848 75.8068 223.837 77.7107 226.821 77.7107C229.804 77.7107 231.822 75.8068 231.822 72.9083ZM248.303 77.1992V75.8636C248.303 75.6647 248.19 75.551 247.991 75.551H241.54C241.54 75.551 241.427 75.4942 241.427 75.4373V64.1276C241.427 63.9286 241.313 63.815 241.114 63.815H239.466C239.267 63.815 239.153 63.9286 239.153 64.1276V77.1992C239.153 77.3981 239.267 77.5118 239.466 77.5118H247.991C248.19 77.5118 248.303 77.3981 248.303 77.1992ZM262.37 72.9651C262.37 74.6417 261.29 75.7499 259.642 75.7499C257.994 75.7499 256.942 74.6417 256.942 72.9651V68.39C256.942 66.7135 258.022 65.6052 259.642 65.6052C261.261 65.6052 262.37 66.7135 262.37 68.39V72.9651ZM264.643 72.8799V68.4185C264.643 65.5484 262.654 63.6445 259.642 63.6445C256.63 63.6445 254.669 65.5484 254.669 68.4185V72.8799C254.669 75.7783 256.658 77.6823 259.642 77.6823C262.625 77.6823 264.643 75.7783 264.643 72.8799ZM281.409 72.8799V70.4644C281.409 70.2655 281.295 70.1519 281.096 70.1519H276.72C276.521 70.1519 276.407 70.2655 276.407 70.4644V71.7432C276.407 71.9421 276.521 72.0558 276.72 72.0558H279.022C279.022 72.0558 279.135 72.0842 279.135 72.1694V73.3629C279.135 74.8122 278.169 75.6647 276.606 75.6647C275.043 75.6647 273.878 74.6417 273.878 73.0504V68.1627C273.878 66.5998 274.93 65.5768 276.521 65.5768C278.112 65.5768 279.135 66.5998 279.135 67.9922V68.1343C279.135 68.1343 279.249 68.3048 279.448 68.3048H281.068C281.267 68.3048 281.38 68.1911 281.38 67.9922V67.907C281.38 65.4347 279.448 63.5876 276.493 63.5876C273.537 63.5876 271.577 65.4347 271.577 68.2195V72.9651C271.577 75.7499 273.537 77.597 276.493 77.597C279.448 77.597 281.38 75.892 281.38 72.8514M290.843 77.1423V64.0707C290.843 63.8718 290.729 63.7581 290.53 63.7581H288.882C288.683 63.7581 288.57 63.8718 288.57 64.0707V77.1423C288.57 77.3413 288.683 77.4549 288.882 77.4549H290.53C290.729 77.4549 290.843 77.3413 290.843 77.1423ZM307.779 77.1423V75.8068C307.779 75.6078 307.666 75.4942 307.467 75.4942H300.902C300.902 75.4942 300.789 75.4373 300.789 75.3805V71.6295C300.789 71.6295 300.846 71.5159 300.902 71.5159H305.279C305.478 71.5159 305.591 71.4022 305.591 71.2033V69.8677C305.591 69.6688 305.478 69.5551 305.279 69.5551H300.902C300.902 69.5551 300.789 69.4983 300.789 69.4415V65.8326C300.789 65.8326 300.817 65.7189 300.902 65.7189H307.467C307.666 65.7189 307.779 65.6052 307.779 65.4063V64.0707C307.779 63.8718 307.666 63.7581 307.467 63.7581H298.828C298.629 63.7581 298.515 63.8718 298.515 64.0707V77.1423C298.515 77.3413 298.629 77.4549 298.828 77.4549H307.467C307.666 77.4549 307.779 77.3413 307.779 77.1423ZM332.757 77.1423V75.8068C332.757 75.6078 332.644 75.4942 332.445 75.4942H325.994C325.994 75.4942 325.881 75.4373 325.881 75.3805V64.0707C325.881 63.8718 325.767 63.7581 325.568 63.7581H323.92C323.721 63.7581 323.607 63.8718 323.607 64.0707V77.1423C323.607 77.3413 323.721 77.4549 323.92 77.4549H332.445C332.644 77.4549 332.757 77.3413 332.757 77.1423ZM348.841 77.1423V75.8068C348.841 75.6078 348.728 75.4942 348.529 75.4942H341.964C341.964 75.4942 341.851 75.4373 341.851 75.3805V71.6295C341.851 71.6295 341.908 71.5159 341.964 71.5159H346.341C346.539 71.5159 346.653 71.4022 346.653 71.2033V69.8677C346.653 69.6688 346.539 69.5551 346.341 69.5551H341.964C341.964 69.5551 341.851 69.4983 341.851 69.4415V65.8326C341.851 65.8326 341.879 65.7189 341.964 65.7189H348.529C348.728 65.7189 348.841 65.6052 348.841 65.4063V64.0707C348.841 63.8718 348.728 63.7581 348.529 63.7581H339.89C339.691 63.7581 339.577 63.8718 339.577 64.0707V77.1423C339.577 77.3413 339.691 77.4549 339.89 77.4549H348.529C348.728 77.4549 348.841 77.3413 348.841 77.1423ZM357.764 67.2818C357.764 66.1736 358.588 65.5484 360.037 65.5484C361.884 65.5484 362.879 66.5714 362.879 67.7365V67.9638C362.879 67.9638 362.993 68.1911 363.192 68.1911H364.811C365.01 68.1911 365.124 68.0775 365.124 67.8785V67.6228C365.124 65.2074 363.135 63.5876 360.151 63.5876C357.395 63.5876 355.547 64.9801 355.547 67.3102C355.547 69.8109 357.65 70.6349 359.81 71.4306C361.913 72.2547 362.936 72.7094 362.936 73.846C362.936 74.8406 362.197 75.6647 360.52 75.6647C358.73 75.6647 357.622 74.7269 357.622 73.5619V73.2493C357.622 73.0504 357.508 72.9651 357.309 72.9651H355.718C355.519 72.9651 355.405 73.0788 355.405 73.2777V73.7039C355.405 76.0909 357.338 77.6254 360.35 77.6254C363.362 77.6254 365.209 76.0909 365.209 73.7892C365.209 71.2885 362.964 70.4645 360.975 69.6972C358.73 68.8731 357.792 68.4753 357.792 67.2818M386.806 77.1992L390.926 64.0991C390.983 63.8718 390.898 63.7581 390.67 63.7581H388.937C388.766 63.7581 388.624 63.8434 388.596 64.0423L385.726 74.1302C385.726 74.1302 385.612 74.2154 385.584 74.1302L382.685 64.0139C382.628 63.815 382.515 63.7581 382.344 63.7581H380.554C380.327 63.7581 380.241 63.9002 380.298 64.0991L384.333 77.1992C384.39 77.3697 384.504 77.4549 384.674 77.4549H386.465C386.635 77.4549 386.749 77.3697 386.806 77.1992ZM406.868 77.1423V75.8068C406.868 75.6078 406.754 75.4942 406.555 75.4942H399.991C399.991 75.4942 399.877 75.4373 399.877 75.3805V71.6295C399.877 71.6295 399.934 71.5159 399.991 71.5159H404.367C404.566 71.5159 404.68 71.4022 404.68 71.2033V69.8677C404.68 69.6688 404.566 69.5551 404.367 69.5551H399.991C399.991 69.5551 399.877 69.4983 399.877 69.4415V65.8326C399.877 65.8326 399.906 65.7189 399.991 65.7189H406.555C406.754 65.7189 406.868 65.6052 406.868 65.4063V64.0707C406.868 63.8718 406.754 63.7581 406.555 63.7581H397.917C397.718 63.7581 397.604 63.8718 397.604 64.0707V77.1423C397.604 77.3413 397.718 77.4549 397.917 77.4549H406.555C406.754 77.4549 406.868 77.3413 406.868 77.1423ZM419.286 69.7825H416.359C416.359 69.7825 416.245 69.754 416.245 69.6688V65.8041C416.245 65.8041 416.274 65.6905 416.359 65.6905H419.286C420.536 65.6905 421.389 66.543 421.389 67.7649C421.389 68.9868 420.536 69.7825 419.286 69.7825ZM423.463 77.4549C423.69 77.4549 423.804 77.2844 423.69 77.0855L420.991 71.4874C420.991 71.4874 420.991 71.3454 421.048 71.3454C422.667 70.8623 423.662 69.5551 423.662 67.7365C423.662 65.3495 422.042 63.7297 419.627 63.7297H414.313C414.114 63.7297 414 63.8434 414 64.0423V77.1423C414 77.3413 414.114 77.4549 414.313 77.4549H415.961C416.16 77.4549 416.274 77.3413 416.274 77.1423V71.6579C416.274 71.6579 416.33 71.5443 416.387 71.5443H418.689C418.689 71.5443 418.803 71.5443 418.831 71.6295L421.389 77.2276C421.474 77.3981 421.588 77.4549 421.758 77.4549H423.491H423.463ZM440.001 65.4063V64.0423C440.001 63.8434 439.888 63.7297 439.689 63.7297H430.311C430.112 63.7297 429.999 63.8434 429.999 64.0423V65.4063C429.999 65.6052 430.112 65.7189 430.311 65.7189H433.665C433.665 65.7189 433.778 65.7757 433.778 65.8326V77.1139C433.778 77.3128 433.892 77.4265 434.091 77.4265H435.739C435.938 77.4265 436.052 77.3128 436.052 77.1139V65.8326C436.052 65.8326 436.08 65.7189 436.165 65.7189H439.66C439.859 65.7189 439.973 65.6052 439.973 65.4063M455.915 67.8785V67.6228C455.915 65.2074 453.926 63.5876 450.942 63.5876C448.185 63.5876 446.338 64.9801 446.338 67.3102C446.338 69.8109 448.441 70.6349 450.601 71.4306C452.704 72.2547 453.727 72.7094 453.727 73.846C453.727 74.8406 452.988 75.6647 451.311 75.6647C449.521 75.6647 448.413 74.7269 448.413 73.5619V73.2493C448.413 73.0504 448.299 72.9651 448.1 72.9651H446.509C446.31 72.9651 446.196 73.0788 446.196 73.2777V73.7039C446.196 76.0909 448.129 77.6254 451.141 77.6254C454.153 77.6254 456 76.0909 456 73.7892C456 71.2885 453.755 70.4645 451.766 69.6972C449.521 68.8731 448.583 68.4753 448.583 67.2818C448.583 66.1736 449.407 65.5484 450.857 65.5484C452.704 65.5484 453.698 66.5714 453.698 67.7365V67.9638C453.698 67.9638 453.812 68.1911 454.011 68.1911H455.602C455.801 68.1911 455.915 68.0775 455.915 67.8785Z" fill="#4BB166"/>
</svg>
