<svg xmlns="http://www.w3.org/2000/svg" viewBox="0 0 2000 583"><g id="a0f7c188-4338-4a8b-a0d8-005950fdd319" data-name="rn-logo-libelle-blanc"><path d="M276.12,582.19c-8.71-1.12-17.44-2.08-26.13-3.39-73.56-11.1-134.24-45.37-181.91-102.19C29.85,431,8.07,378.21,2.36,319.08a289.57,289.57,0,0,1,231-311.82c94.57-19.2,179,4.75,252.13,67.83.85.73,1.63,1.53,3.08,2.91-8.79.54-16,1-23.39-4.93-50.19-40-107.77-60.4-171.93-60.75C158.58,11.6,42.84,107.09,17.38,239.17-11.71,390.11,88,537.31,239.4,565.48c86.83,16.15,164.68-5,232.66-61.19,7.08-5.86,13.85-5.68,23.12-5.18-6,5.34-10.8,9.93-15.91,14.2-45,37.58-96.51,60.15-154.93,66.71-5.55.62-11.08,1.44-16.62,2.17Z" style="fill:#fff"/><path d="M1999,257.7c-5.92,2.21-11.66,5.44-17.78,6.45-19.27,3.19-31.32-7.14-31.61-26.66-.27-18-.08-36-.09-54V176.6h-14.43V164.67h14.18V137.78h14.48V164.1h32.54v12.31c-8.42,0-17,.33-25.55-.12-5.49-.29-7,1.5-6.84,6.9.35,15.75.1,31.52.13,47.28,0,18.73,9.42,24.75,26.51,17,1.17-.52,2.31-1.1,3.77-1.8,1.63,3.79,3.16,7.32,4.69,10.86Z" style="fill:#fff"/><path d="M465.83,462.17H433.74V325.54c9.62,0,19.3-.14,29,.16,1.37,0,2.9,2.07,4,3.47q27.75,36.93,55.4,73.92c1.45,1.94,3,3.85,5.55,7.23V325.79h31.95V462.41c-9.76,0-19.13.21-28.46-.19-1.67-.08-3.54-2.43-4.8-4.11Q498.36,421,470.57,383.73a11.43,11.43,0,0,0-4.74-4.11Z" style="fill:#fff"/><path d="M433.68,127.21c4.95,0,9.6-.06,14.24,0,20.09.32,40.24-.13,60.26,1.23,23.31,1.59,39.36,15.48,42.5,36.56,3.24,21.65-1.49,40.8-22,53-.47.28-.88.65-1.81,1.35l13.94,21.9c4.62,7.28,9.24,14.55,14.28,22.47a43.48,43.48,0,0,1-4.61.52c-9.4,0-18.81-.29-28.19.16-4.75.23-7-1.65-9-5.59-4.75-9.57-10.07-18.86-14.79-28.44-1.86-3.77-4.22-5.1-8.33-4.84a127.27,127.27,0,0,1-16.34,0c-4.56-.28-6.28,1-6.12,5.89.35,10.66.11,21.35.11,32.43H433.68Zm34.18,70.86c11.63,0,22.36.64,33-.18,11.29-.87,17.94-9.45,18-21.33.11-12.25-5.94-20.29-17.58-21.5-9.85-1-19.85-.79-29.79-.8-1.21,0-3.47,1.91-3.49,3C467.78,170.67,467.86,184.13,467.86,198.07Z" style="fill:#fff"/><path d="M1084.34,462.12H1052c-.11-2.3-.27-4.31-.28-6.32,0-16.33,0-32.66,0-49-.06-13.49-6.24-21.07-17.57-21.81-11.52-.74-21.71,7.33-22.48,19.76-1,16.08-.51,32.25-.65,48.38-.11,11.14.76,9.15-9.3,9.29-7.67.1-15.34,0-23.51,0V357.37h32.74v15.78a28,28,0,0,0,2.87-2.33,42.68,42.68,0,0,1,46.29-13.29,35,35,0,0,1,24.65,33c.62,23.25.19,46.54.18,69.81A6.77,6.77,0,0,1,1084.34,462.12Z" style="fill:#fff"/><path d="M843.65,409.45c.08-30.77,21-52.32,52.78-53.25a85.84,85.84,0,0,1,28.2,3.76c23.77,7.63,36.5,29.8,33.82,56.42-2.45,24.4-20.46,43.41-45.1,45.95A98.73,98.73,0,0,1,882.7,461C858.14,455.61,843.58,435.51,843.65,409.45Zm33.75.42c0,1.5-.12,3,0,4.49,1.2,13.06,9.61,22,21.85,23.33,10.78,1.16,20.77-5.76,24.2-17a34.89,34.89,0,0,0-.29-22.1c-3.4-9.89-11.06-15.84-20.75-16.16C887.36,382,877.33,392.9,877.4,409.87Z" style="fill:#fff"/><path d="M1169.75,451.22c-14,13.35-29.7,15.23-46.39,10.36-14-4.09-21.71-15.64-21.65-30.69.07-14.78,7.26-24.89,22-28.8,7.33-1.95,15.16-2.25,22.81-2.68s15.3-.1,22.84-.1c1.26-9.32-3-15.53-11.56-17.76-10.74-2.79-20.83.22-30.82,3.69-3,1-5.83,2.39-9.26,3.82l-9.28-21.54c12.81-6.37,25.76-10.81,39.55-11.4,9.08-.39,18.51,0,27.33,2,16.85,3.87,26.42,14.34,27.19,31.49,1.08,23.94.27,48,.27,72.39h-32C1170.45,458.75,1170.13,455.3,1169.75,451.22Zm-.24-33.72c-9.06,0-17.7-.32-26.3.12-5.26.26-9.21,3-10,8.88-.84,6.13,1.58,11.22,7,13.37,8.17,3.28,15.89,1.68,23-3.14C1169.88,432.12,1171.1,425.45,1169.51,417.5Z" style="fill:#fff"/><path d="M680.86,462.21H648.78c-.18-3.4-.36-6.68-.58-10.68a28.65,28.65,0,0,0-3.3,2.12c-12.7,11.21-34.18,13.81-49.09,5.71-12.79-6.94-17.12-18.32-16-32.15,1-12.62,8.14-21.12,20-24.54,7.8-2.26,16.22-2.69,24.4-3.25,7.64-.51,15.34-.11,22.87-.11,1.89-8.56-2.4-16.08-11-17.46a64.32,64.32,0,0,0-20.53.38c-6.57,1.11-12.83,4-20,6.41l-9.19-21.23c22.25-10.34,44.76-15.61,68.59-9,15.52,4.29,25.13,15.1,25.73,31.21C681.52,413.56,680.86,437.59,680.86,462.21ZM648.2,420.58c-.4-.4-1.86-3.14-3.43-3.21-7.87-.34-15.79-.19-23.67.21-4.63.23-8.44,2.6-9.67,7.32-1.29,5-.69,9.94,3.84,13.22,7,5.1,14.64,4.14,22,.83C644,435.88,648.4,430.76,648.2,420.58Z" style="fill:#fff"/><path d="M1510.24,264h-14V161.54h13.94V182l1.21,1c8.73-16.1,22.53-22.4,39.92-22.15,18,.26,30.16,8.59,36.34,26.65,6.08-15,16.3-23.58,31.29-25.91,26.8-4.17,46.35,8.29,47.32,35.06.81,22.27.17,44.59.17,67.27h-14.73v-6c0-17.45,0-34.91,0-52.37,0-15.39-6.44-25.32-18.51-28.87-14.15-4.15-29.77,1-37.54,12.55-4.78,7.07-6.65,15-6.63,23.45,0,15,0,30,0,45V264h-15.22v-6.2q0-25.9,0-51.81c0-15.82-6.41-25.83-18.65-29.35-14.61-4.2-30.37,1.41-38.19,13.54-5.09,7.89-6.37,16.74-6.43,25.84-.1,13.89,0,27.78,0,41.67C1510.5,259.69,1510.34,261.7,1510.24,264Z" style="fill:#fff"/><path d="M1158.06,264.06h-14c-.12-2.11-.32-4.09-.32-6.07,0-16.9.08-33.8-.08-50.69a50.9,50.9,0,0,0-1.52-12.8c-4.28-15.71-20.63-23-38.21-17.45-14.45,4.59-23.05,17.42-23.34,35.49-.24,15-.07,30-.08,45.06v6.34H1066c-.12-2.27-.33-4.45-.34-6.62,0-17.27.18-34.55-.09-51.82-.26-16.8-7.17-26.19-20.87-29.3-15.49-3.52-31.11,3.11-37.51,16.9a49.58,49.58,0,0,0-4.48,18.33c-.64,15.37-.25,30.78-.27,46.18V264H988.3V161.55h13.93V182c9.58-15.14,23.26-21.4,40.44-21.21,17.86.19,30.38,8,36.42,26.18,1.23-2.12,2-3.33,2.65-4.59,10.9-21,41.86-28.76,61.45-15.34a32.66,32.66,0,0,1,14.65,26.71C1158.54,217,1158.06,240.24,1158.06,264.06Z" style="fill:#fff"/><path d="M744.11,332.91v28.64h27v21.89H744v12.73c0,9.58-.06,19.16,0,28.73.09,10.49,5,14.11,15.29,11.38,2.34-.62,4.64-1.37,7.63-2.26,2.15,7.47,4.26,14.78,6.35,22-12.68,10.58-40.74,10.31-52.73-.47-6.85-6.17-9.74-14.17-9.87-23.13-.21-13.9-.08-27.79-.1-41.69v-6.88H696.26V362.31l14.15-.74V332.91Z" style="fill:#fff"/><path d="M1208.82,181.21c12.84-17.48,29.76-23,49.67-19.59,22.9,4,38.45,22.15,39.52,45.48a75.05,75.05,0,0,1-1.64,21.17c-4.72,19.17-16.84,31.79-36.55,35.34-20.2,3.64-37.69-1.32-50.57-20.94v21.22h-15V119.57h14.57Zm.1,31.33c0,22.81,15.11,38.6,37,38.65s37.35-15.92,37.43-38.47S1267.78,174,1246.14,174C1224.19,174.06,1208.94,189.84,1208.92,212.54Z" style="fill:#fff"/><path d="M1229,317.68h32.81v144.4H1229Z" style="fill:#fff"/><path d="M1789.9,218.32h-84.33c1.93,13.37,7.77,23.08,19,29.13,15,8.09,29.83,5.78,51.22-7.83l7.6,8.16c-8.14,8.74-17.8,13.54-29,15.8-22,4.44-43.23-3.14-54.47-19.65-11.81-17.32-12.08-43.64-.63-61.29,18.64-28.72,66.19-29.56,82.9-1.4C1788.81,192.41,1790.51,204.69,1789.9,218.32Zm-13.48-12.46c-.92-19.79-14.44-32.31-34.34-32.41-19.53-.1-34.68,13.34-36.11,32.41Z" style="fill:#fff"/><path d="M961.39,218.42H876.47c2.17,13.93,8.22,24.32,20.59,29.69,17.82,7.74,34.09,3.89,49.27-8.65l8.53,9.1c-6,3.88-11.33,8.29-17.42,11.13-12.88,6-26.57,6.6-40.19,2.88-24.85-6.79-39.16-31.74-34.92-58.64,5.9-37.36,41-49.7,69.63-40,16.46,5.59,24.45,18.56,27.58,34.83C960.69,204.82,960.73,211.05,961.39,218.42ZM947,205.9c1.2-17.42-12.7-31.12-32.45-32.39S877.85,186.7,877,205.9Z" style="fill:#fff"/><path d="M1469.47,218.39h-84.58c1.73,13.1,7.24,23.08,18.39,28.67,18.51,9.29,35.63,5.34,51.47-7.6l8.08,8.56c-3.91,3.08-7.23,6.38-11.15,8.64-16.45,9.52-33.89,10.76-51.49,4-19.23-7.34-30.4-25.88-30.07-48.4.62-41.89,37.11-59.06,69.63-48.49,18.42,6,26.18,20.79,28.72,38.86C1469.17,207.59,1469.12,212.62,1469.47,218.39Zm-84-12.64h70c-.3-19.47-14.85-32.75-34.83-32.3C1401.09,173.9,1384.89,188.71,1385.49,205.75Z" style="fill:#fff"/><path d="M658.66,264H645.13V249a35.66,35.66,0,0,0-3,2.23c-13.74,13.84-30.51,16.39-48.4,11.62-16.68-4.44-25.41-21.31-20.72-37.61,3.17-11,14.17-19.28,28.48-20.25,11.8-.8,23.66-.6,35.48-.83,2.22,0,4.43,0,6.49,0,4.49-18.6-8.2-31.92-28.4-30.67a56.18,56.18,0,0,0-25.5,8.08c-1.75,1-3.53,2-5.81,3.32l-6.06-10.22c10.26-7.59,21.36-12.75,34-13.53A85,85,0,0,1,633,162.31c14.88,2.87,24.89,13.16,25.45,28.23C659.32,214.85,658.66,239.21,658.66,264Zm-14.35-47c-14.71,0-28.94-.62-43.08.22-9.54.57-14.75,6.48-15.37,14.33-.7,8.79,3.89,15.9,12.91,18.7,13.24,4.11,25.65,1.89,36.49-6.79C643.77,236.67,646.43,227.52,644.31,217Z" style="fill:#fff"/><path d="M1910.78,264h-14.4v-6.31c0-17.09.06-34.17,0-51.26-.08-15.74-6.4-25.51-18.78-29.36-14.49-4.5-30.75.44-38.88,11.95a36.8,36.8,0,0,0-6.89,21.63c0,17.62,0,35.24,0,53.25h-14.61V161.43h14.43V181.8c6.56-9.05,13.94-16.51,24.76-18.68,7.62-1.53,15.72-2.57,23.38-1.73,18,2,30.25,15,30.84,33.23C1911.34,217.49,1910.78,240.4,1910.78,264Z" style="fill:#fff"/><path d="M824.05,357.31V462.13H791.48V357.31Z" style="fill:#fff"/><path d="M769.57,250.19l4.55-8.9c9.69,3.63,18.62,8.13,28.08,10.11,6.43,1.35,13.77-.14,20.4-1.67,5.38-1.25,8.68-5.64,9.09-11.61s-2.07-10.57-7.21-12.94c-7-3.19-14.35-5.41-21.49-8.22-5.56-2.2-11.43-4-16.47-7.11-16.78-10.35-16.09-35.23,1.58-44,18.47-9.18,36.71-5.9,55,3.76-2,4.16-3.7,7.79-5.08,10.71-8.48-2.38-16.24-5.3-24.26-6.54-5.16-.8-10.82.36-16,1.62s-8.3,5-8.83,10.49,1.77,9.76,6.53,12.08c5.53,2.7,11.43,4.64,17.19,6.86,6.64,2.57,13.52,4.62,19.88,7.73,9.47,4.63,14.08,12.79,14,23.26-.1,10.64-5,18.65-14.41,23.77C814.23,269.24,784.61,265,769.57,250.19Z" style="fill:#fff"/><path d="M753.85,170.44l-5,9.88c-8.32-2.37-15.91-5.26-23.76-6.49-5.16-.81-10.82.26-16,1.44s-8.44,4.71-9.1,10.25c-.68,5.73,1.66,10.14,6.64,12.55,5.54,2.68,11.48,4.53,17.21,6.81,7.3,2.91,15.11,5,21.74,9,15.54,9.45,16.08,32.2,1.59,43.05-16.93,12.67-51.81,9.19-66.52-6.92,1.72-3.3,3.5-6.74,5.43-10.44,11.09,8.69,23.16,13.42,36.89,12.52a33,33,0,0,0,12.38-3.18c9.39-4.71,10.38-16.75,1.69-22.6-4.72-3.18-10.46-4.92-15.85-7-7-2.74-14.27-4.73-21-7.89-10.45-4.89-15.14-13.54-14.32-25.12.78-10.93,6.63-18,16.5-22.12C717.48,157.81,741.44,160.58,753.85,170.44Z" style="fill:#fff"/><path d="M1341,263.94h-13.84V119.59H1341Z" style="fill:#fff"/><path d="M825.53,326.52c0,10.51-7.29,17.81-17.64,17.72s-17.37-7.43-17.29-18.05c.08-10.19,7.21-17.37,17.34-17.46S825.56,316.08,825.53,326.52Z" style="fill:#fff"/><path d="M308.51,38.44h1.12c1.67,15.45,2.74,31,4.53,46.41,4.18,36.18,11.12,71.82,19,107.34C341,227.54,355.25,261.12,361.22,297v33.86C357.47,354,347.06,374.16,333,392.51c-10.69,13.94-22.54,27-32.75,41.3-11.17,15.69-19.68,32.38-18.33,52.47A102.49,102.49,0,0,0,296.3,532c4.25,7.2,8.88,14.17,13.33,21.25h-3.36c-5-2.14-9.94-4.23-14.89-6.42-28.95-12.83-54.3-30.43-73.78-56a125.35,125.35,0,0,1-25.83-66.76c-2-23.54,3.18-46.05,12.86-67.33s16-43.24,20.76-65.88c5.28-25,9.24-50.15,12.19-75.49.48-4.11,2.21-4.21,5.15-2.57,3.68,2.05,6.33,5.18,8.88,8.45,5.57,7.16,9.39,15.35,13.69,24.68-.7-8.62-1.62-15.86-1.83-23.12a356.54,356.54,0,0,1,2-47.22c3.39-32.63,10.15-64.48,21.65-95.2C292.65,65.63,298.9,51.14,308.51,38.44Z" style="fill:#fff"/><path d="M245.27,227.52c4.58,12.18,9.59,24.21,13.65,36.56,8,24.39,12.54,49.4,11.41,75.23-.6,13.79-2.58,27.45-8.35,40-18.56,40.3-14.44,79.65,4.76,118.13,7,14,16,26.92,23.88,39.88-2.84-1.71-6.51-3.79-10-6.08-23.5-15.3-44.62-33.19-60.69-56.43-23-33.24-27.62-68.36-11.48-106a464.24,464.24,0,0,0,32.48-112c1.48-9.53,2.19-19.18,3.25-28.78Z" style="fill:#064473"/><path d="M274.4,457.85a66.87,66.87,0,0,1-3.09-36.45c3.56-17.6,8.38-35,13.27-52.25,8.89-31.4,9-62.54-1.36-93.58-10.54-31.58-12.11-64-8.93-96.8,3.54-36.38,12.17-71.64,24.57-106,.62-1.7,1.37-3.35,2.24-5.46,2.12,17.23,3.86,33.9,6.26,50.48,7,48.53,19,95.93,33.35,142.75,6.67,21.69,10.71,43.68,7.63,66.53a102.5,102.5,0,0,1-19.78,47.83c-7.8,10.56-16.29,20.63-24.67,30.75-12.67,15.31-23.8,31.42-28.36,51.2C275.47,457.13,275,457.32,274.4,457.85Z" style="fill:#c00f26"/></g></svg>